<!-- Generator: Adobe Illustrator 18.0.0, SVG Export Plug-In  -->
<svg version="1.1"
	 xmlns="http://www.w3.org/2000/svg" xmlns:xlink="http://www.w3.org/1999/xlink" xmlns:a="http://ns.adobe.com/AdobeSVGViewerExtensions/3.0/"
	 x="0px" y="0px" width="94px" height="94px" viewBox="0 0 94 94" enable-background="new 0 0 94 94" xml:space="preserve">
<defs>
</defs>
<g>
	<polygon fill="#4C4C4C" points="70.4,42.1 51.9,42.1 51.9,23.6 42.1,23.6 42.1,42.1 23.6,42.1 23.6,51.9 42.1,51.9 42.1,70.4 
		51.9,70.4 51.9,51.9 70.4,51.9 	"/>
	<g>
		<path fill="#4C4C4C" d="M47,94C21.1,94,0,72.9,0,47C0,21.1,21.1,0,47,0c25.9,0,47,21.1,47,47C94,72.9,72.9,94,47,94z M47,11.7
			c-19.4,0-35.2,15.8-35.2,35.3c0,19.4,15.8,35.2,35.2,35.2c19.4,0,35.3-15.8,35.3-35.2C82.2,27.6,66.4,11.7,47,11.7z"/>
	</g>
</g>
</svg>
