<!-- Generator: Adobe Illustrator 18.0.0, SVG Export Plug-In  -->
<svg version="1.1"
	 xmlns="http://www.w3.org/2000/svg" xmlns:xlink="http://www.w3.org/1999/xlink" xmlns:a="http://ns.adobe.com/AdobeSVGViewerExtensions/3.0/"
	 x="0px" y="0px" width="65.2px" height="86.9px" viewBox="0 0 65.2 86.9" enable-background="new 0 0 65.2 86.9"
	 xml:space="preserve">
<defs>
</defs>
<path fill="#4C4C4C" d="M65.2,81.5c0,3-2.4,5.4-5.4,5.4H5.4c-3,0-5.4-2.4-5.4-5.4V41.1c0-3,2.4-5.4,5.4-5.4h54.3
	c3,0,5.4,2.4,5.4,5.4V81.5z"/>
<g>
	<path fill="#4C4C4C" d="M39.3,67H25.8c-11,0-19.9-8.9-19.9-19.9V19.9C5.9,8.9,14.9,0,25.8,0h13.5c11,0,19.9,8.9,19.9,19.9v27.2
		C59.2,58.1,50.3,67,39.3,67z M25.8,9C19.9,9,15,13.9,15,19.9v27.2c0,6,4.9,10.9,10.9,10.9h13.5c6,0,10.9-4.9,10.9-10.9V19.9
		c0-6-4.9-10.9-10.9-10.9H25.8z"/>
</g>
</svg>
