<!-- Generator: Adobe Illustrator 18.0.0, SVG Export Plug-In  -->
<svg version="1.1"
	 xmlns="http://www.w3.org/2000/svg" xmlns:xlink="http://www.w3.org/1999/xlink" xmlns:a="http://ns.adobe.com/AdobeSVGViewerExtensions/3.0/"
	 x="0px" y="0px" width="82.9px" height="69.5px" viewBox="0 0 82.9 69.5" enable-background="new 0 0 82.9 69.5"
	 xml:space="preserve">
<defs>
</defs>
<g>
	<path fill="#4C4C4C" d="M71.8,69.5H5.7c-3.1,0-5.7-2.5-5.7-5.7V5.7C0,2.5,2.5,0,5.7,0h41.4c3.1,0,5.7,2.5,5.7,5.7
		c0,3.1-2.5,5.7-5.7,5.7H11.4v46.7h54.7v-9.2c0-3.1,2.5-5.7,5.7-5.7s5.7,2.5,5.7,5.7v14.9C77.4,66.9,74.9,69.5,71.8,69.5z"/>
</g>
<path fill="#4C4C4C" d="M82.1,21.6L64.3,5.3c-1.1-1-1.9-0.6-1.9,0.9v7.1c-36.8,2.6-39.1,33.7-39.1,33.7s16.2-21.1,39.1-13.8v7.4
	c0,1.4,0.9,1.8,1.9,0.9l17.9-16.3C83.2,24.2,83.2,22.6,82.1,21.6z"/>
</svg>
