<!-- Generator: Adobe Illustrator 18.0.0, SVG Export Plug-In  -->
<svg version="1.1"
	 xmlns="http://www.w3.org/2000/svg" xmlns:xlink="http://www.w3.org/1999/xlink" xmlns:a="http://ns.adobe.com/AdobeSVGViewerExtensions/3.0/"
	 x="0px" y="0px" width="36px" height="29.7px" viewBox="0 0 36 29.7" enable-background="new 0 0 36 29.7" xml:space="preserve">
<defs>
</defs>
<path fill="#4C4C4C" d="M32,10.9H13.6l4-4c1.6-1.6,1.6-4.1,0-5.7c-1.6-1.6-4.1-1.6-5.7,0L1.2,12c-1.6,1.6-1.6,4.1,0,5.6L12,28.5
	c0.8,0.8,1.8,1.2,2.8,1.2c1,0,2-0.4,2.8-1.2c1.6-1.6,1.6-4.1,0-5.7l-4-4H32c2.2,0,4-1.8,4-4C36,12.6,34.2,10.9,32,10.9z"/>
</svg>
