<!-- Generator: Adobe Illustrator 18.0.0, SVG Export Plug-In  -->
<svg version="1.1"
	 xmlns="http://www.w3.org/2000/svg" xmlns:xlink="http://www.w3.org/1999/xlink" xmlns:a="http://ns.adobe.com/AdobeSVGViewerExtensions/3.0/"
	 x="0px" y="0px" width="26.5px" height="23.7px" viewBox="0 0 26.5 23.7" enable-background="new 0 0 26.5 23.7"
	 xml:space="preserve">
<defs>
</defs>
<g>
	<g>
		<path fill="#333333" d="M26.5,3c0,1.1-0.9,2-2,2H2C0.9,5,0,4.1,0,3V2c0-1.1,0.9-2,2-2h22.5c1.1,0,2,0.9,2,2V3z"/>
	</g>
	<g>
		<path fill="#333333" d="M26.5,12.3c0,1.1-0.9,2-2,2H2c-1.1,0-2-0.9-2-2v-1c0-1.1,0.9-2,2-2h22.5c1.1,0,2,0.9,2,2V12.3z"/>
	</g>
	<g>
		<path fill="#333333" d="M26.5,21.7c0,1.1-0.9,2-2,2H2c-1.1,0-2-0.9-2-2v-1c0-1.1,0.9-2,2-2h22.5c1.1,0,2,0.9,2,2V21.7z"/>
	</g>
</g>
</svg>
