<!-- Generator: Adobe Illustrator 18.0.0, SVG Export Plug-In  -->
<svg version="1.1"
	 xmlns="http://www.w3.org/2000/svg" xmlns:xlink="http://www.w3.org/1999/xlink" xmlns:a="http://ns.adobe.com/AdobeSVGViewerExtensions/3.0/"
	 x="0px" y="0px" width="99.5px" height="66px" viewBox="0 0 99.5 66" enable-background="new 0 0 99.5 66" xml:space="preserve">
<defs>
</defs>
<g>
	<path fill="#4C4C4C" d="M12.9,5.5V0.9c0-0.9-0.5-1.1-1.2-0.5L0.5,10.6c-0.7,0.6-0.7,1.6,0,2.2l11.2,10.2c0.7,0.6,1.2,0.4,1.2-0.5
		v-4.4V5.5z"/>
</g>
<g>
	<path fill="#4C4C4C" d="M86.6,60.5v4.7c0,0.9,0.5,1.1,1.2,0.5L99,55.4c0.7-0.6,0.7-1.6,0-2.2L87.8,42.9c-0.7-0.6-1.2-0.4-1.2,0.5
		v4.4V60.5z"/>
</g>
<g>
	<path fill="#4C4C4C" d="M21,7.8H4.9C2.7,7.8,1,9.6,1,11.7s1.7,3.8,3.8,3.8H21c9.6,0,14.4,4.4,19.7,11.9l4.5-6.9
		C39.3,12.8,33,7.8,21,7.8z"/>
	<path fill="#4C4C4C" d="M91.9,50.5H75.5c-10.4,0-15.2-7.3-21.5-17.1l-4.4,7.3c6.2,9.4,12.9,17.5,25.9,17.5h16.4
		c2.1,0,3.8-1.7,3.8-3.8C95.8,52.2,94,50.5,91.9,50.5z"/>
</g>
<g>
	<path fill="#4C4C4C" d="M86.6,17.8v4.7c0,0.9,0.5,1.1,1.2,0.5L99,12.8c0.7-0.6,0.7-1.6,0-2.2L87.8,0.3c-0.7-0.6-1.2-0.4-1.2,0.5
		v4.4V17.8z"/>
</g>
<g>
	<path fill="#4C4C4C" d="M12.9,48.1v-4.7c0-0.9-0.5-1.1-1.2-0.5L0.5,53.2c-0.7,0.6-0.7,1.6,0,2.2l11.2,10.2c0.7,0.6,1.2,0.4,1.2-0.5
		v-4.4V48.1z"/>
</g>
<g>
	<path fill="#4C4C4C" d="M20.3,58.1H6.5v-7.7h6.5c1.5,0,7.3,0,7.3,0c8.8,0,13.8-5.1,18.9-13.4c1-1.6,1.9-3.2,3-5
		c0.6-1.1,1.3-2.2,1.9-3.3c1.7-2.8,3.7-6,6.1-9c6.7-8.2,14.5-12,24.6-12h18.6c2.1,0,3.8,1.7,3.8,3.8s-1.7,3.8-3.8,3.8H74.7
		c-7.7,0-13.5,2.8-18.6,9.2c-2.1,2.6-4,5.5-5.5,8.1c-0.6,1.1-1.3,2.1-1.9,3.2c-1,1.7-2,3.5-3.1,5.1C40.2,50,33.3,58.1,20.3,58.1z"/>
</g>
</svg>
