<!-- Generator: Adobe Illustrator 18.0.0, SVG Export Plug-In  -->
<svg version="1.1"
	 xmlns="http://www.w3.org/2000/svg" xmlns:xlink="http://www.w3.org/1999/xlink" xmlns:a="http://ns.adobe.com/AdobeSVGViewerExtensions/3.0/"
	 x="0px" y="0px" width="74.9px" height="74.9px" viewBox="0 0 74.9 74.9" enable-background="new 0 0 74.9 74.9"
	 xml:space="preserve">
<defs>
</defs>
<path fill="#4C4C4C" d="M12.1,72.9l10.7-10.7c13.1,8.5,30.8,7,42.2-4.5c13.2-13.2,13.2-34.6,0-47.8s-34.6-13.2-47.8,0
	C5.8,21.3,4.3,39,12.8,52.1L2.1,62.8c-2.8,2.8-2.8,7.3,0,10C4.8,75.6,9.3,75.6,12.1,72.9z M26.3,18.9c8.2-8.2,21.5-8.2,29.7,0
	c8.2,8.2,8.2,21.5,0,29.7c-8.2,8.2-21.5,8.2-29.7,0C18.1,40.4,18.1,27.1,26.3,18.9z"/>
</svg>
