<!-- Generator: Adobe Illustrator 18.0.0, SVG Export Plug-In  -->
<svg version="1.1"
	 xmlns="http://www.w3.org/2000/svg" xmlns:xlink="http://www.w3.org/1999/xlink" xmlns:a="http://ns.adobe.com/AdobeSVGViewerExtensions/3.0/"
	 x="0px" y="0px" width="98.8px" height="73.3px" viewBox="0 0 98.8 73.3" enable-background="new 0 0 98.8 73.3"
	 xml:space="preserve">
<defs>
</defs>
<g>
	<g>
		<path fill="#4C4C4C" d="M85.7,73.3H13.1C5.9,73.3,0,67.4,0,60.2V13.1C0,5.9,5.9,0,13.1,0h72.6c7.2,0,13.1,5.9,13.1,13.1v47.1
			C98.8,67.4,92.9,73.3,85.7,73.3z M13.1,11.9c-0.6,0-1.2,0.5-1.2,1.2v47.1c0,0.6,0.5,1.2,1.2,1.2h72.6c0.6,0,1.2-0.5,1.2-1.2V13.1
			c0-0.6-0.5-1.2-1.2-1.2H13.1z"/>
	</g>
	<g>
		<path fill="#4C4C4C" d="M49.4,42.6c-1.1,0-2.2-0.3-3.1-0.9L2.8,14.8C0,13.1-0.8,9.4,0.9,6.6C2.6,3.8,6.3,3,9.1,4.7l40.1,24.8
			L85.6,4.8C88.3,3,92,3.7,93.8,6.4c1.8,2.7,1.1,6.4-1.6,8.3L52.7,41.6C51.7,42.2,50.6,42.6,49.4,42.6z"/>
	</g>
</g>
</svg>
