<!-- Generator: Adobe Illustrator 18.0.0, SVG Export Plug-In  -->
<svg version="1.1"
	 xmlns="http://www.w3.org/2000/svg" xmlns:xlink="http://www.w3.org/1999/xlink" xmlns:a="http://ns.adobe.com/AdobeSVGViewerExtensions/3.0/"
	 x="0px" y="0px" width="193.4px" height="60.2px" viewBox="0 0 193.4 60.2" enable-background="new 0 0 193.4 60.2"
	 xml:space="preserve">
<defs>
</defs>
<g>
	<g>
		<path fill="#CC2F6F" d="M11.2,46.4c-3.7,0-8.5-1.2-11.2-2.8l1.5-6c2.4,1.4,6.7,2.6,9.9,2.6c2.3,0,3.9-0.9,3.9-2.6
			c0-2.1-1.3-2.8-6.5-4.8c-4.8-1.9-8-3.6-8-8.9c0-6.1,5-9.4,11.4-9.4c3.6,0,7.5,1.1,9.6,2.3l-1.5,6c-1.6-0.8-5-1.8-7.6-1.8
			c-2.8,0-4.1,0.9-4.1,2.5c0,1.6,2.1,2.4,5.6,3.7c5.6,2.1,8.7,4.8,8.7,9.7C23,43.2,17.4,46.4,11.2,46.4z"/>
		<path fill="#CC2F6F" d="M24.6,15.4h4.3v-2.6c0-10,6.5-12.8,12-12.8c1.1,0,2.8,0.1,3.4,0.4l-0.9,6.1h-0.8c-5.3,0-6.1,2.8-6.1,6.6
			v2.4h6.2v5.9h-6.2v24.2h-7.6V21.3h-4.3V15.4z"/>
		<path fill="#CC2F6F" d="M79.6,15.4L79.6,15.4L83.3,8h3.9v7.5h8.1v5.8h-8.1v15.5c0,1.8,0.8,3,2.4,3c1.8,0,4.1-0.7,5.3-1.1l0.9,5.6
			c-1.6,1.1-4.8,2.1-7.6,2.1c-5.3,0-8.6-2.5-8.6-9V21.2h0V15.4z"/>
		<path fill="#CC2F6F" d="M99.6,5.1c0-2.7,2.1-4.8,4.9-4.8c2.8,0,5.1,2.1,5.1,4.8c0,2.6-2.3,4.8-5.1,4.8
			C101.7,9.8,99.6,7.7,99.6,5.1z M100.6,16.1l7.6-1.6v30.9h-7.6V16.1z"/>
		<path fill="#FFFFFF" d="M122.4,44.9v14.4h-7.6V15.8l7.6-1.3v3.6c2.3-2.5,5.3-3.6,8.4-3.6c7.3,0,12.2,5.8,12.2,15.5
			c0,10-5.4,16.4-14.6,16.4C126.2,46.4,124,45.7,122.4,44.9z M122.4,38.3c1.3,0.9,3.4,1.8,5.7,1.8c4.3,0,7.1-3.1,7.1-9.5
			c0-4.8-1.6-9.3-6.1-9.3c-2.6,0-4.9,1.4-6.6,3.6V38.3z"/>
		<path fill="#FFFFFF" d="M161.3,48.9c-2.2,6-5.2,11.3-12.3,11.3c-1.8,0-4.2-0.3-5.9-1.2l1.3-5.5c1,0.4,2.9,0.8,3.9,0.8
			c3.6,0,5.5-3.8,7.6-10l-11.9-28.9h8.1l7.3,18.9l6.5-18.9h7.8L161.3,48.9z"/>
	</g>
	<g>
		<path fill="#FFFFFF" d="M177.6,16.6h-3.3v-1h7.8v1h-3.3v8.8h-1.2V16.6z"/>
		<path fill="#FFFFFF" d="M183.7,15.6h1.4l3.5,8l3.5-8h1.3v9.8h-1.2V18l-3.3,7.4h-0.7l-3.3-7.5v7.5h-1.2V15.6z"/>
	</g>
	<path fill="#CC2F6F" d="M59.2,13.1c-9.1,0-16.6,7.4-16.6,16.6c0,9.1,7.4,16.6,16.6,16.6c9.1,0,16.6-7.4,16.6-16.6
		C75.8,20.5,68.4,13.1,59.2,13.1z"/>
	<path fill-rule="evenodd" clip-rule="evenodd" fill="#FFFFFF" d="M52.4,29.9c0-2.7,0-5.3,0-8c0-0.7,0.3-0.9,1-0.7
		c0.3,0.1,0.5,0.3,0.8,0.4c4.4,2.5,8.8,4.9,13.3,7.4c0.4,0.2,0.7,0.5,0.7,1c0,0.5-0.3,0.8-0.7,1c-4.4,2.4-8.8,4.8-13.1,7.3
		c-0.3,0.2-0.7,0.4-1,0.5c-0.6,0.2-0.9-0.1-0.9-0.7C52.4,35.3,52.4,32.6,52.4,29.9z"/>
</g>
</svg>
