<!-- Generator: Adobe Illustrator 18.0.0, SVG Export Plug-In  -->
<svg version="1.1"
	 xmlns="http://www.w3.org/2000/svg" xmlns:xlink="http://www.w3.org/1999/xlink" xmlns:a="http://ns.adobe.com/AdobeSVGViewerExtensions/3.0/"
	 x="0px" y="0px" width="88.8px" height="79.1px" viewBox="0 0 88.8 79.1" enable-background="new 0 0 88.8 79.1"
	 xml:space="preserve">
<defs>
</defs>
<g>
	<path fill="#4C4C4C" d="M36.5,9L17.3,24.1c-0.8,0.6-1.4,1.5-2,2.5H4c-2.2,0-4,1.8-4,4v18c0,2.2,1.8,4,4,4h11.3c0.5,1,1.2,1.9,2,2.5
		l19.2,15.1c1.7,1.4,3.1,0.7,3.1-1.5v-58C39.7,8.3,38.3,7.7,36.5,9z"/>
	<g>
		<path fill="#4C4C4C" d="M49.3,64.3c-2.2,0-4-1.8-4-4s1.8-4,4-4c9.2,0,16.7-7.5,16.7-16.7c0-9.2-7.5-16.7-16.7-16.7
			c-2.2,0-4-1.8-4-4s1.8-4,4-4C62.9,14.8,74,25.9,74,39.5S62.9,64.3,49.3,64.3z"/>
	</g>
	<g>
		<path fill="#4C4C4C" d="M49.3,79.1c-2.2,0-4-1.8-4-4s1.8-4,4-4c17.4,0,31.5-14.2,31.5-31.5C80.8,22.2,66.6,8,49.3,8
			c-2.2,0-4-1.8-4-4c0-2.2,1.8-4,4-4c21.8,0,39.5,17.7,39.5,39.5C88.8,61.4,71.1,79.1,49.3,79.1z"/>
	</g>
</g>
</svg>
